<?xml version="1.0" encoding="utf-8"?>
<svg xmlns="http://www.w3.org/2000/svg" height="16" width="16" viewBox="0 0 16 16">
  <g>
    <rect height="16" width="16" fill="#007FFF" />
    <path id="path1" transform="rotate(270,8,8) translate(5.83518813978664,1) scale(0.14873640263409,0.14873640263409)  " fill="#FFFFFF" d="M11.2499990463257,0.235626220703125L11.90625,0.657501816749573 12.75,1.50125157833099 14.015625,2.15750098228455 14.390625,3.32937669754028 15.65625,4.07937574386597 16.59375,5.25125169754028 17.859375,6.28250169754028 18.515625,7.64187669754028 19.6875,9.00125122070313 20.4375,10.6418762207031 21.796875,11.7668762207031 22.453125,13.4075002670288 23.25,15.1418762207031 24.09375,16.3606262207031 24.65625,17.8137512207031 25.171875,19.3606262207031 25.828125,20.6262512207031 26.109375,21.8450012207031 26.578125,23.5793762207031 26.859375,24.9387512207031 27.1875,26.5793762207031 27.75,28.2668762207031 28.125,31.0793762207031 28.125,33.0012512207031 28.59375,35.0168762207031 28.78125,37.0325012207031 28.78125,38.6731262207031 29.109375,39.9856262207031 28.78125,41.7200012207031 29.109375,43.6418762207031 28.78125,45.2825012207031 28.78125,47.3918762207031 28.5,49.5012512207031 28.40625,50.9543762207031 28.40625,52.7825012207031 28.03125,54.7043762207031 27.84375,56.2981262207031 27.28125,57.7512512207031 27.09375,58.9231262207031 26.859375,60.1418762207031 26.203125,61.5012512207031 26.109375,62.9543762207031 25.453125,64.2668762207031 25.171875,66.0012512207031 24.375,67.5481262207031 23.71875,69.6575012207031 23.25,71.3918762207031 22.546875,73.6887512207031 22.078125,75.7043762207031 21.421875,77.5325012207031 19.96875,79.3606262207031 19.3125,81.0950012207031 18.421875,82.2200012207031 16.78125,83.9543762207031 15.46875,84.9387512207031 14.390625,86.1575012207031 13.546875,87.5168762207031 13.1718759536743,89.4387512207031 12.46875,90.6106262207031 12,92.0168762207031 11.15625,93.0950012207031 9.609375,93.9387512207031 8.25,94.1262512207031 6.046875,94.0325012207031 4.5,93.4700012207031 3.37500023841858,92.8137512207031 2.10937476158142,92.0168762207031 1.45312547683716,91.0793762207031 0.656250476837158,90.0950012207031 0.656250476837158,88.8762512207031 1.82812488079071,88.2668762207031 1.82812488079071,87.0481262207031 2.859375,86.0637512207031 4.21875,84.7512512207031 5.76562547683716,83.7668762207031 7.59375047683716,82.7356262207031 8.4375,82.0325012207031 9.42187595367432,81.4700012207031 10.078125,80.3918762207031 11.34375,79.3606262207031 12.1875,78.8918762207031 12.46875,78.0012512207031 13.1718759536743,77.4387512207031 13.734375,76.0793762207031 15.09375,74.3450012207031 16.03125,72.9387512207031 17.203125,71.3918762207031 17.765625,69.6575012207031 18.703125,68.2981262207031 19.5,66.3762512207031 19.96875,64.7825012207031 20.71875,63.3293762207031 21.421875,62.7668762207031 21.890625,61.1262512207031 22.359375,59.6731262207031 23.25,57.8450012207031 23.8125,56.1106262207031 24.1875,54.2825012207031 24.75,52.3606262207031 25.171875,50.5793762207031 25.546875,48.5637512207031 25.734375,46.9231262207031 26.203125,44.3918762207031 26.296875,42.5168762207031 26.296875,40.2668762207031 26.390625,38.4387512207031 26.390625,34.7356262207031 26.296875,32.8137512207031 26.203125,31.8293762207031 25.921875,30.1887512207031 25.828125,28.5012512207031 25.640625,27.1418762207031 25.171875,24.9387512207031 24.84375,23.1106262207031 24.375,21.4700012207031 23.53125,19.5481262207031 23.15625,18.0012512207031 22.265625,16.8762512207031 21.421875,14.6731262207031 20.8125,13.5950012207031 20.0625,12.9387521743774 19.3125,11.1106262207031 18.140625,9.65750122070313 17.578125,8.90750217437744 15.375,6.09500122070313 14.7656259536743,5.06375122070313 13.359375,3.89187669754028 12.1875,2.95437598228455 11.71875,2.25125193595886 10.546875,1.40750062465668 10.171875,0.657501816749573 11.2499990463257,0.235626220703125z" />
  </g>
</svg>

