<?xml version="1.0" encoding="UTF-8" standalone="no"?><!DOCTYPE svg PUBLIC "-//W3C//DTD SVG 1.1//EN" "http://www.w3.org/Graphics/SVG/1.1/DTD/svg11.dtd"><svg width="100%" height="100%" viewBox="0 0 595 116" version="1.1" xmlns="http://www.w3.org/2000/svg" xmlns:xlink="http://www.w3.org/1999/xlink" xml:space="preserve" xmlns:serif="http://www.serif.com/" style="fill-rule:evenodd;clip-rule:evenodd;stroke-linejoin:round;stroke-miterlimit:2;"><path d="M594.342,1.098l-0.007,-0.012c-0.487,-0.693 -1.29,-1.1 -2.137,-1.083c-14.619,0.823 -38.17,9.391 -39.163,9.756c-0.574,0.211 -1.045,0.634 -1.317,1.181l-3.318,6.628l-2.446,-2.447c-0.738,-0.745 -1.885,-0.919 -2.812,-0.428c-2.8,1.463 -16.954,8.968 -19.965,12.621c-1.748,2.113 -3.1,6.762 -4.016,10.859l-1.6,-3.191c-0.33,-0.667 -0.954,-1.142 -1.685,-1.283c-0.731,-0.151 -1.491,0.054 -2.047,0.552c-0.847,0.743 -18.514,16.641 -14.836,36.462c14.135,-20.152 31.123,-37.1 58.911,-50.74c0.331,-0.163 0.694,-0.248 1.063,-0.248c1.318,0 2.403,1.085 2.403,2.404c0,0.913 -0.521,1.751 -1.34,2.155l-0.008,0c-1.616,0.8 -3.186,1.607 -4.727,2.424c-0.392,0.207 -0.777,0.417 -1.164,0.626c-1.183,0.64 -2.346,1.287 -3.49,1.94c-0.373,0.214 -0.742,0.424 -1.11,0.638c-2.948,1.718 -5.764,3.485 -8.447,5.3c-0.221,0.148 -0.438,0.3 -0.662,0.455c-1.168,0.8 -2.314,1.61 -3.439,2.429c-0.2,0.144 -0.392,0.288 -0.589,0.434c-26.224,19.344 -40.1,43.856 -56.724,73.256c-0.204,0.361 -0.312,0.768 -0.312,1.183c0,1.317 1.084,2.4 2.4,2.4l0.006,0c0.865,0.003 1.667,-0.463 2.091,-1.217c6.621,-11.708 12.8,-22.623 19.5,-32.725c2.73,3.326 6.873,5.18 11.172,5c18.176,0 48.192,-26.586 51.215,-35.149c0.091,-0.258 0.138,-0.529 0.138,-0.802c0,-1.099 -0.754,-2.064 -1.82,-2.329l-8.011,-2.006l17.441,-2.906c0.759,-0.124 1.413,-0.609 1.753,-1.3l19.231,-38.458c0.368,-0.762 0.318,-1.662 -0.132,-2.379Z" style="fill:#fff;fill-rule:nonzero;"/><path d="M460.184,69.332c-0.507,-1.472 -1.355,-2.803 -2.474,-3.885c-1.49,-1.393 -3.217,-2.508 -5.1,-3.291c-1.841,-0.808 -3.748,-1.454 -5.7,-1.932c-2.105,-0.526 -4.426,-1.11 -6.965,-1.753c-1.365,-0.29 -2.66,-0.842 -3.814,-1.626c-0.81,-0.555 -1.453,-1.321 -1.859,-2.215c-0.346,-0.873 -0.516,-1.807 -0.5,-2.746c-0.021,-1.285 0.43,-2.535 1.268,-3.51c0.874,-1.012 2.026,-1.745 3.313,-2.108c1.595,-0.44 3.246,-0.646 4.9,-0.614c1.842,0.053 3.664,0.395 5.4,1.013c1.677,0.497 3.28,1.22 4.763,2.147c1.331,0.91 2.316,0.935 2.951,0.087l2.043,-2.633c0.278,-0.269 0.435,-0.639 0.435,-1.026c0,-0.56 -0.331,-1.071 -0.842,-1.301c-1.843,-1.23 -3.833,-2.225 -5.923,-2.961c-2.925,-0.928 -5.987,-1.351 -9.054,-1.251c-2.655,0.014 -5.296,0.391 -7.849,1.12c-2.608,0.692 -4.948,2.153 -6.715,4.192c-1.777,2.021 -2.733,4.637 -2.678,7.327c-0.13,2.297 0.448,4.58 1.656,6.538c1.024,1.5 2.345,2.774 3.881,3.744c1.471,0.915 3.058,1.629 4.719,2.122c2.479,0.765 4.483,1.332 6.011,1.7c1.56,0.379 3.098,0.844 4.607,1.392c1.001,0.353 1.966,0.803 2.88,1.344c0.936,0.518 1.695,1.305 2.178,2.259c0.466,0.925 0.706,1.948 0.7,2.984c0.08,1.584 -0.447,3.14 -1.475,4.348c-0.917,1.038 -2.102,1.805 -3.425,2.215c-1.445,0.415 -2.944,0.615 -4.447,0.594c-2.553,0.041 -5.095,-0.361 -7.511,-1.188c-2.133,-0.756 -4.143,-1.82 -5.967,-3.16c-1.3,-0.964 -2.285,-1.013 -2.949,-0.131l-2.032,2.765c-0.543,0.733 -0.346,1.524 0.591,2.371c0.937,0.876 3.017,1.937 6.239,3.184c3.718,1.325 7.647,1.958 11.593,1.865c2.881,0.058 5.756,-0.305 8.533,-1.076c2.503,-0.811 4.728,-2.31 6.421,-4.324c1.929,-2.189 2.959,-5.029 2.882,-7.945c0.017,-1.571 -0.214,-3.136 -0.685,-4.635Z" style="fill:#fff;fill-rule:nonzero;"/><path d="M421.53,69.332c-0.507,-1.472 -1.356,-2.803 -2.475,-3.885c-1.49,-1.393 -3.217,-2.508 -5.1,-3.291c-1.84,-0.808 -3.748,-1.454 -5.7,-1.932c-2.103,-0.526 -4.424,-1.11 -6.964,-1.753c-1.364,-0.29 -2.659,-0.842 -3.813,-1.626c-0.811,-0.554 -1.454,-1.321 -1.86,-2.215c-0.347,-0.873 -0.517,-1.807 -0.5,-2.746c-0.022,-1.286 0.43,-2.535 1.269,-3.51c0.873,-1.012 2.025,-1.745 3.312,-2.108c1.595,-0.439 3.246,-0.646 4.9,-0.614c1.842,0.053 3.664,0.395 5.4,1.013c1.678,0.498 3.28,1.22 4.764,2.147c1.33,0.91 2.315,0.935 2.95,0.087l2.042,-2.633c0.278,-0.269 0.435,-0.639 0.435,-1.025c-0,-0.562 -0.332,-1.073 -0.844,-1.302c-1.842,-1.231 -3.832,-2.225 -5.922,-2.961c-2.925,-0.928 -5.987,-1.351 -9.054,-1.251c-2.655,0.015 -5.296,0.391 -7.849,1.12c-2.608,0.692 -4.948,2.153 -6.715,4.192c-1.775,2.022 -2.731,4.637 -2.678,7.327c-0.13,2.297 0.448,4.58 1.656,6.538c1.024,1.5 2.345,2.774 3.881,3.744c1.471,0.915 3.058,1.629 4.719,2.122c2.48,0.765 4.484,1.332 6.012,1.7c1.56,0.379 3.097,0.844 4.606,1.392c1.002,0.354 1.967,0.804 2.882,1.344c0.935,0.518 1.693,1.305 2.176,2.259c0.468,0.925 0.709,1.948 0.705,2.984c0.08,1.584 -0.447,3.14 -1.475,4.348c-0.917,1.038 -2.102,1.804 -3.425,2.215c-1.445,0.415 -2.944,0.615 -4.447,0.594c-2.553,0.041 -5.094,-0.361 -7.51,-1.188c-2.133,-0.755 -4.144,-1.82 -5.968,-3.16c-1.3,-0.964 -2.285,-1.013 -2.949,-0.131l-2.043,2.765c-0.544,0.733 -0.347,1.524 0.59,2.371c0.937,0.876 3.017,1.937 6.239,3.184c3.718,1.325 7.647,1.958 11.593,1.865c2.881,0.058 5.756,-0.305 8.533,-1.076c2.503,-0.811 4.728,-2.31 6.42,-4.324c1.931,-2.188 2.963,-5.028 2.887,-7.945c0.019,-1.571 -0.21,-3.136 -0.68,-4.635Z" style="fill:#fff;fill-rule:nonzero;"/><path d="M382.104,64.483c0,-8.631 -1.914,-14.916 -5.741,-18.855c-3.771,-3.91 -9.022,-6.054 -14.452,-5.9c-6.987,0 -12.357,2.15 -16.111,6.451c-3.754,4.301 -5.629,10.081 -5.625,17.341c0,7.259 1.792,13.038 5.377,17.337c3.585,4.299 9.159,6.451 16.723,6.456c5.808,0 10.065,-0.933 12.772,-2.8c2.707,-1.867 4.347,-3.218 4.922,-4.055c0.697,-1.028 0.697,-1.833 0,-2.415l-2.676,-2.244c-0.908,-0.76 -1.845,-0.527 -2.812,0.7c-1.18,1.36 -2.587,2.506 -4.157,3.388c-1.89,1.139 -4.602,1.711 -8.137,1.714c-3.302,0.016 -6.501,-1.166 -9,-3.325c-2.652,-2.216 -4.237,-6.156 -4.754,-11.821l31.8,0c1.247,0.003 1.871,-0.654 1.871,-1.972Zm-33.671,-3.826c0.454,-5.93 1.906,-10.067 4.357,-12.41c2.389,-2.318 5.61,-3.585 8.938,-3.515c3.666,-0.173 7.148,1.664 9.076,4.786c2.1,3.338 3.232,7.195 3.269,11.139l-25.64,0Z" style="fill:#fff;fill-rule:nonzero;"/><path d="M316.199,87.341c-0.079,0.01 -0.158,0.016 -0.237,0.016c-0.988,-0 -1.8,-0.813 -1.8,-1.8c0,-0.086 0.006,-0.171 0.018,-0.256l0,-43.568c-0.012,-0.086 -0.019,-0.172 -0.019,-0.259c0,-0.987 0.813,-1.8 1.8,-1.8c0.088,-0 0.175,0.006 0.261,0.019l3.813,-0c0.086,-0.013 0.173,-0.019 0.26,-0.019c0.987,-0 1.8,0.813 1.8,1.8c0,0.087 -0.007,0.173 -0.019,0.259l0,5.444c1.223,-2.433 2.997,-4.547 5.18,-6.173c2.2,-1.451 4.798,-2.179 7.431,-2.084c1.394,-0.076 2.791,0.093 4.126,0.5c0.48,0.1 0.828,0.527 0.828,1.018c0,0.118 -0.02,0.234 -0.059,0.345l-1.044,3.719c-0.15,0.546 -0.543,0.76 -1.176,0.638c-0.991,-0.206 -2.001,-0.314 -3.013,-0.321c-3.554,-0.003 -6.876,1.804 -8.805,4.79c-2.314,3.194 -3.47,7.543 -3.468,13.048l0,22.644c0.012,0.085 0.018,0.17 0.018,0.256c0,0.987 -0.812,1.8 -1.8,1.8c-0.079,-0 -0.158,-0.006 -0.237,-0.016l-3.858,-0Z" style="fill:#fff;fill-rule:nonzero;"/><path d="M268.992,53.763l12.753,0c6.653,0 11.191,-0.946 13.612,-2.838c2.421,-1.892 3.631,-4.956 3.629,-9.192c0,-4.23 -1.21,-7.291 -3.629,-9.184c-2.419,-1.893 -6.957,-2.838 -13.612,-2.836l-12.753,0l0,24.05Zm-6.443,33.578c-1.513,0 -2.27,-0.833 -2.269,-2.5l0,-60.074c0,-1.663 0.756,-2.497 2.269,-2.5l19.061,0c10.285,0 17.228,1.733 20.829,5.2c3.601,3.467 5.401,8.222 5.4,14.267c0,6.056 -1.8,10.814 -5.4,14.274c-3.6,3.46 -10.543,5.191 -20.829,5.194l-12.618,0l0,23.641c0,1.667 -0.756,2.5 -2.269,2.5l-4.174,-0.002Z" style="fill:#fff;fill-rule:nonzero;"/><path d="M252.846,76.25l-3.042,-1.757c-1,-0.584 -1.892,-0.19 -2.676,1.183c-0.976,1.633 -2.312,3.021 -3.905,4.06c-1.784,1.246 -4.354,1.869 -7.711,1.87c-3.737,0.188 -7.338,-1.472 -9.622,-4.436c-2.267,-2.955 -3.4,-7.506 -3.4,-13.651c0,-6.145 1.133,-10.696 3.4,-13.651c2.285,-2.963 5.885,-4.623 9.622,-4.435c3.175,0 5.557,0.484 7.147,1.451c1.479,0.862 2.744,2.047 3.7,3.466c0.906,1.4 1.814,1.8 2.721,1.183l2.857,-1.8c0.498,-0.246 0.815,-0.756 0.815,-1.312c0,-0.376 -0.145,-0.738 -0.404,-1.01c-1.498,-2.084 -3.406,-3.84 -5.606,-5.161c-2.585,-1.68 -6.328,-2.521 -11.229,-2.522c-7.262,0 -12.655,2.246 -16.178,6.738c-3.523,4.492 -5.285,10.177 -5.286,17.054c0,6.875 1.762,12.56 5.286,17.055c3.524,4.495 8.916,6.74 16.175,6.737c5.718,-0 9.915,-1.133 12.59,-3.4c1.963,-1.508 3.698,-3.29 5.153,-5.292c0.638,-1.054 0.502,-1.844 -0.407,-2.37Z" style="fill:#fff;fill-rule:nonzero;"/><path d="M201.984,87.341c-0.084,0.012 -0.169,0.018 -0.253,0.018c-0.991,-0 -1.806,-0.815 -1.806,-1.806c0,-0.086 0.006,-0.172 0.018,-0.257l0,-43.558c-0.012,-0.085 -0.018,-0.171 -0.018,-0.257c0,-0.991 0.815,-1.806 1.806,-1.806c0.084,-0 0.169,0.006 0.253,0.018l3.9,-0c0.084,-0.012 0.169,-0.018 0.254,-0.018c0.992,-0 1.807,0.816 1.807,1.807c0,0.086 -0.006,0.171 -0.018,0.256l0,43.558c0.012,0.085 0.018,0.17 0.018,0.256c0,0.991 -0.815,1.807 -1.807,1.807c-0.085,-0 -0.17,-0.006 -0.254,-0.018l-3.9,-0Zm0,-56.267c-0.084,0.012 -0.169,0.018 -0.254,0.018c-0.99,-0 -1.805,-0.815 -1.805,-1.805c0,-0.086 0.006,-0.171 0.018,-0.256l0,-3.9c-0.013,-0.086 -0.019,-0.174 -0.019,-0.261c0,-0.987 0.813,-1.8 1.8,-1.8c0.087,-0 0.174,0.006 0.26,0.019l3.9,-0c0.084,-0.012 0.17,-0.018 0.255,-0.018c0.991,-0 1.806,0.815 1.806,1.806c0,0.085 -0.006,0.17 -0.018,0.254l0,3.9c0.012,0.084 0.018,0.169 0.018,0.254c0,0.991 -0.816,1.807 -1.807,1.807c-0.085,-0 -0.17,-0.006 -0.254,-0.018l-3.9,-0Z" style="fill:#fff;fill-rule:nonzero;"/><path d="M194.41,69.323c-0.505,-1.472 -1.352,-2.804 -2.472,-3.885c-1.491,-1.396 -3.221,-2.514 -5.106,-3.3c-1.838,-0.808 -3.744,-1.454 -5.695,-1.928c-2.105,-0.526 -4.426,-1.112 -6.965,-1.758c-1.365,-0.29 -2.66,-0.842 -3.814,-1.626c-0.81,-0.555 -1.453,-1.321 -1.86,-2.215c-0.346,-0.875 -0.516,-1.81 -0.5,-2.751c-0.021,-1.287 0.43,-2.537 1.268,-3.514c0.875,-1.011 2.027,-1.744 3.313,-2.109c1.595,-0.439 3.246,-0.646 4.9,-0.613c1.842,0.053 3.664,0.395 5.4,1.013c1.678,0.497 3.281,1.22 4.763,2.151c1.332,0.906 2.316,0.94 2.949,0.088l2.044,-2.639c0.278,-0.268 0.436,-0.639 0.436,-1.026c0,-0.561 -0.332,-1.072 -0.845,-1.301c-4.392,-3.012 -9.657,-4.495 -14.975,-4.216c-2.655,0.017 -5.296,0.394 -7.85,1.12c-2.608,0.695 -4.948,2.159 -6.714,4.2c-1.777,2.025 -2.733,4.643 -2.678,7.336c-0.129,2.297 0.448,4.58 1.655,6.539c1.024,1.501 2.346,2.777 3.882,3.748c1.47,0.915 3.057,1.629 4.717,2.123c2.481,0.764 4.485,1.331 6.013,1.7c1.56,0.377 3.097,0.84 4.606,1.387c1.001,0.357 1.966,0.807 2.882,1.344c0.935,0.521 1.693,1.31 2.178,2.264c0.465,0.926 0.705,1.948 0.7,2.984c0.079,1.585 -0.449,3.143 -1.476,4.353c-0.916,1.039 -2.102,1.805 -3.425,2.215c-1.444,0.417 -2.943,0.617 -4.446,0.594c-2.554,0.043 -5.095,-0.359 -7.511,-1.188c-2.132,-0.758 -4.142,-1.822 -5.967,-3.16c-1.301,-0.968 -2.284,-1.013 -2.948,-0.136l-2.045,2.77c-0.543,0.731 -0.345,1.524 0.592,2.371c0.937,0.876 3.017,1.939 6.239,3.189c3.718,1.325 7.647,1.957 11.593,1.865c2.881,0.057 5.755,-0.305 8.532,-1.076c2.505,-0.814 4.733,-2.314 6.43,-4.329c1.929,-2.19 2.959,-5.032 2.881,-7.95c0.019,-1.571 -0.211,-3.135 -0.681,-4.634Z" style="fill:#fff;fill-rule:nonzero;"/><path d="M155.759,69.332c-0.507,-1.471 -1.355,-2.802 -2.473,-3.885c-1.492,-1.393 -3.221,-2.508 -5.105,-3.291c-1.839,-0.807 -3.744,-1.454 -5.695,-1.932c-2.104,-0.526 -4.426,-1.11 -6.965,-1.753c-1.364,-0.29 -2.659,-0.842 -3.813,-1.626c-0.811,-0.554 -1.454,-1.321 -1.86,-2.215c-0.346,-0.873 -0.516,-1.807 -0.5,-2.746c-0.022,-1.286 0.43,-2.536 1.27,-3.51c0.874,-1.012 2.026,-1.746 3.313,-2.108c1.595,-0.44 3.246,-0.647 4.9,-0.614c1.842,0.053 3.664,0.395 5.4,1.013c1.678,0.497 3.28,1.22 4.764,2.147c1.33,0.91 2.315,0.935 2.952,0.087l2.041,-2.633c0.278,-0.269 0.435,-0.639 0.435,-1.025c-0,-0.562 -0.332,-1.073 -0.844,-1.302c-1.843,-1.23 -3.833,-2.225 -5.923,-2.961c-2.923,-0.927 -5.982,-1.35 -9.046,-1.251c-2.655,0.014 -5.296,0.391 -7.85,1.12c-2.608,0.692 -4.948,2.153 -6.715,4.192c-1.776,2.022 -2.731,4.637 -2.676,7.327c-0.131,2.297 0.447,4.58 1.654,6.538c1.025,1.499 2.346,2.774 3.881,3.744c1.471,0.915 3.058,1.629 4.719,2.122c2.48,0.765 4.484,1.332 6.012,1.7c1.56,0.379 3.098,0.843 4.607,1.392c1.002,0.354 1.966,0.804 2.881,1.344c0.935,0.519 1.694,1.306 2.179,2.259c0.465,0.926 0.705,1.948 0.7,2.984c0.08,1.584 -0.448,3.14 -1.476,4.348c-0.917,1.038 -2.102,1.805 -3.425,2.215c-1.445,0.415 -2.943,0.615 -4.446,0.594c-2.553,0.041 -5.095,-0.361 -7.511,-1.188c-2.133,-0.756 -4.144,-1.821 -5.968,-3.16c-1.3,-0.964 -2.285,-1.013 -2.949,-0.131l-2.043,2.765c-0.544,0.733 -0.347,1.524 0.59,2.371c0.937,0.876 3.017,1.937 6.239,3.184c3.719,1.326 7.65,1.958 11.597,1.865c2.881,0.058 5.755,-0.305 8.532,-1.076c2.503,-0.812 4.729,-2.31 6.422,-4.324c1.928,-2.189 2.958,-5.029 2.881,-7.945c0.017,-1.572 -0.214,-3.136 -0.686,-4.635Z" style="fill:#fff;fill-rule:nonzero;"/><path d="M109.89,44.445c-2.694,-3.145 -7.201,-4.717 -13.522,-4.718c-2.313,-0.004 -4.619,0.254 -6.874,0.769c-1.947,0.409 -3.843,1.035 -5.651,1.865c-1.708,0.868 -3.282,1.976 -4.674,3.291c-1.12,1.023 -1.346,1.9 -0.68,2.634l2.359,2.634c0.726,0.789 1.497,0.745 2.314,-0.132c1.013,-1.104 2.165,-2.071 3.428,-2.877c1.241,-0.767 2.575,-1.372 3.97,-1.8c1.892,-0.51 3.849,-0.739 5.808,-0.682c3.811,0 6.36,1 7.645,3c1.323,2.141 1.994,4.621 1.929,7.137l0,2.984c-10.012,0.409 -17.537,1.829 -22.575,4.26c-5.038,2.431 -7.557,6.254 -7.557,11.467c0,4.099 1.339,7.296 4.016,9.591c2.677,2.295 6.497,3.444 11.458,3.447c2.588,0.031 5.166,-0.332 7.645,-1.076c2.538,-0.855 4.91,-2.141 7.012,-3.8l0,2.152c0,1.314 0.6,1.977 1.79,1.977l4.13,0c1.379,0 2.066,-0.663 2.066,-1.977l0,-27.22c0.001,-5.468 -1.345,-9.777 -4.037,-12.926Zm-3.948,33.018c-1.827,1.673 -4.042,2.864 -6.444,3.466c-2.179,0.451 -4.399,0.673 -6.624,0.662c-1.465,0.004 -2.926,-0.151 -4.358,-0.463c-1.318,-0.261 -2.487,-1.015 -3.268,-2.108c-0.842,-1.295 -1.254,-2.823 -1.179,-4.366c0.02,-2.033 0.913,-3.963 2.45,-5.293c1.799,-1.618 3.99,-2.737 6.355,-3.247c4.311,-0.85 8.679,-1.385 13.068,-1.6l0,12.949Z" style="fill:#fff;fill-rule:nonzero;"/><path d="M61.436,87.341c-1.362,-0 -2.043,-0.658 -2.043,-1.967l0,-54.497c0,-0.584 0.157,-1.157 0.454,-1.66l3.176,-5.548c0.575,-1.017 1.045,-1.526 1.408,-1.526l1.588,-0c0.907,-0 1.361,0.509 1.361,1.526l0,61.708c0,1.309 -0.68,1.967 -2.041,1.967l-3.903,-0.003Z" style="fill:#fff;fill-rule:nonzero;"/><path d="M54.135,72.132l-3.767,-2.055c-1.241,-0.667 -2.33,-0.157 -3.267,1.529c-1.452,2.385 -3.391,4.438 -5.691,6.022c-2.618,1.918 -6.105,2.877 -10.46,2.877c-7.564,0 -13.062,-2.26 -16.495,-6.781c-3.433,-4.521 -5.15,-10.854 -5.151,-19c0,-8.14 1.717,-14.473 5.151,-19c3.434,-4.527 8.932,-6.787 16.495,-6.781c4.236,0 7.487,0.8 9.754,2.4c2.004,1.32 3.681,3.081 4.9,5.148c0.937,1.775 2.011,2.327 3.221,1.658l3.585,-2.007c1.118,-0.641 1.254,-1.804 0.408,-3.488c-1.767,-3.388 -4.608,-6.097 -8.076,-7.7c-3.751,-1.877 -8.501,-2.815 -14.25,-2.814c-9.832,0 -17.372,2.886 -22.621,8.658c-5.249,5.772 -7.872,13.747 -7.871,23.924c0,10.18 2.624,18.156 7.872,23.929c5.248,5.773 12.788,8.66 22.621,8.661c6.111,0 11.178,-1.113 15.2,-3.34c3.662,-1.869 6.694,-4.775 8.717,-8.354c0.906,-1.714 0.814,-2.876 -0.275,-3.486Z" style="fill:#fff;fill-rule:nonzero;"/></svg>