<?xml version="1.0" encoding="UTF-8" standalone="no"?><!DOCTYPE svg PUBLIC "-//W3C//DTD SVG 1.1//EN" "http://www.w3.org/Graphics/SVG/1.1/DTD/svg11.dtd"><svg width="100%" height="100%" viewBox="0 0 512 512" version="1.1" xmlns="http://www.w3.org/2000/svg" xmlns:xlink="http://www.w3.org/1999/xlink" xml:space="preserve" xmlns:serif="http://www.serif.com/" style="fill-rule:evenodd;clip-rule:evenodd;stroke-linejoin:round;stroke-miterlimit:2;"><path d="M505,442.7l-99.7,-99.7c-4.5,-4.5 -10.6,-7 -17,-7l-16.3,0c27.6,-35.3 44,-79.7 44,-128c0,-114.9 -93.1,-208 -208,-208c-114.9,0 -208,93.1 -208,208c0,114.9 93.1,208 208,208c48.3,0 92.7,-16.4 128,-44l0,16.3c0,6.4 2.5,12.5 7,17l99.7,99.7c9.4,9.4 24.6,9.4 33.9,0l28.3,-28.3c9.4,-9.4 9.4,-24.6 0.1,-34Zm-297,-106.7c-70.7,0 -128,-57.2 -128,-128c0,-70.7 57.2,-128 128,-128c70.7,0 128,57.2 128,128c0,70.7 -57.2,128 -128,128Z" style="fill:#fff;fill-rule:nonzero;"/></svg>